<?xml version="1.0" encoding="UTF-8"?>
<svg id="Layer_1" data-name="Layer 1" xmlns="http://www.w3.org/2000/svg" viewBox="0 0 46.95 46.95">
  <defs>
    <style>
      .cls-1 {
        fill: #f3f1e4;
      }

      .cls-2 {
        fill: #101d2b;
      }
    </style>
  </defs>
  <circle class="cls-2" cx="23.48" cy="23.48" r="23.48"/>
  <path class="cls-1" d="M37.5,25.63c-.02-.64-.27-1.17-.74-1.58-.47-.42-1.07-.62-1.79-.62h-3.01c-.26,0-.43.15-.51.45l-2.66,10.08-2.3-8.83c-.17-.68-.51-1.14-1.01-1.36-.5-.22-1.12-.34-1.84-.34h-1.07s.04-.02.04-.04c.05-.1.04-.21-.05-.34l-3.58-5.92c1.02-.51,1.82-1.24,2.4-2.18.58-.94.86-2.02.86-3.23,0-1.79-.54-3.24-1.62-4.34-1.08-1.1-2.83-1.65-5.26-1.65h-6.34c-.28,0-.42.15-.42.45v16.93c0,.28.14.42.42.42h3.49c.26,0,.38-.14.38-.42v-5.31h1.82l2.88,5.25c.11.21.22.35.35.4.13.05.31.08.54.08h1.83s-.03.02-.04.04c-.08.1-.11.2-.11.3l-.99,16.93c0,.28.12.42.35.42h3.62c.23,0,.35-.14.35-.42l.51-9.76,2.59,9.76c.08.28.25.42.48.42h3.26c.26,0,.42-.14.48-.42l2.69-9.79.48,9.79c0,.28.14.42.42.42h3.58c.21,0,.32-.14.32-.42l-.83-15.17ZM17.61,13.15c-.23.31-.53.52-.88.64s-.7.18-1.04.18h-2.78v-4.22h2.78c.66,0,1.21.17,1.63.51.43.34.64.85.64,1.54,0,.6-.12,1.05-.35,1.36Z"/>
</svg>